<svg width="22" height="18" viewBox="0 0 22 18" fill="none" xmlns="http://www.w3.org/2000/svg">
<path d="M11 15.9977C8.59578 16.0035 6.24784 15.2704 4.274 13.8977C2.34563 12.5611 0.85799 10.6815 0 8.49768C0.868062 6.2875 2.38179 4.39007 4.34389 3.05269C6.30599 1.71531 8.62546 1 11 1C13.3745 1 15.694 1.71531 17.6561 3.05269C19.6182 4.39007 21.1319 6.2875 22 8.49768C21.1423 10.6814 19.655 12.561 17.727 13.8977C15.7529 15.2706 13.4046 16.0037 11 15.9977ZM11 3.49768C10.0111 3.49768 9.04439 3.79093 8.22215 4.34034C7.3999 4.88974 6.75904 5.67064 6.3806 6.58427C6.00216 7.4979 5.90315 8.50323 6.09607 9.47314C6.289 10.443 6.7652 11.334 7.46447 12.0332C8.16373 12.7325 9.05464 13.2087 10.0245 13.4016C10.9945 13.5945 11.9998 13.4955 12.9134 13.1171C13.827 12.7386 14.6079 12.0978 15.1573 11.2755C15.7068 10.4533 16 9.48659 16 8.49768C15.9987 7.17201 15.4715 5.90101 14.5341 4.96361C13.5967 4.02622 12.3257 3.49901 11 3.49768ZM11 11.4977C10.4067 11.4977 9.82664 11.3217 9.33329 10.9921C8.83994 10.6624 8.45542 10.1939 8.22836 9.64573C8.0013 9.09756 7.94189 8.49436 8.05764 7.91241C8.1734 7.33047 8.45912 6.79592 8.87868 6.37636C9.29824 5.95681 9.83279 5.67108 10.4147 5.55533C10.9967 5.43957 11.5999 5.49898 12.1481 5.72605C12.6962 5.95311 13.1648 6.33763 13.4944 6.83097C13.8241 7.32432 14 7.90434 14 8.49768C14 9.29333 13.6839 10.0564 13.1213 10.619C12.5587 11.1816 11.7956 11.4977 11 11.4977Z" fill="#909090"/>
<rect x="17.4949" width="1.77932" height="21.4038" transform="rotate(41.6486 17.4949 0)" fill="white"/>
<rect x="17.9382" y="0.394119" width="1.18621" height="21.4038" transform="rotate(41.6486 17.9382 0.394119)" fill="#909090"/>
</svg>
