<svg width="71" height="39" viewBox="0 0 71 39" fill="none" xmlns="http://www.w3.org/2000/svg">
<rect width="71" height="39" rx="2" fill="#EDE7E7"/>
<rect x="0.5" y="0.5" width="70" height="38" rx="1.5" stroke="black" stroke-opacity="0.2"/>
<circle cx="36" cy="19" r="13" fill="#C4C4C4"/>
<path d="M35.9425 24.1818V12.3636H36.6996V24.1818H35.9425ZM37.9506 16.2646C37.9137 15.8922 37.7552 15.6029 37.4751 15.3967C37.1951 15.1905 36.815 15.0874 36.3349 15.0874C36.0086 15.0874 35.7332 15.1335 35.5085 15.2259C35.2839 15.3151 35.1115 15.4397 34.9915 15.5998C34.8745 15.7598 34.8161 15.9414 34.8161 16.1445C34.8099 16.3138 34.8453 16.4615 34.9222 16.5877C35.0022 16.7139 35.1115 16.8232 35.25 16.9155C35.3885 17.0047 35.5485 17.0832 35.7301 17.1509C35.9117 17.2156 36.1056 17.271 36.3118 17.3171L37.1612 17.5202C37.5736 17.6126 37.9522 17.7357 38.2969 17.8896C38.6416 18.0434 38.9401 18.2327 39.1925 18.4574C39.4448 18.6821 39.6403 18.9467 39.7788 19.2514C39.9203 19.5561 39.9927 19.9054 39.9957 20.2994C39.9927 20.878 39.8449 21.3796 39.5526 21.8043C39.2633 22.226 38.8447 22.5537 38.2969 22.7876C37.7521 23.0185 37.0951 23.1339 36.3256 23.1339C35.5624 23.1339 34.8976 23.0169 34.3313 22.783C33.7681 22.5491 33.328 22.2029 33.011 21.7443C32.6971 21.2827 32.5324 20.7118 32.517 20.0316H34.4513C34.4729 20.3486 34.5637 20.6133 34.7237 20.8256C34.8868 21.0349 35.1038 21.1934 35.3746 21.3011C35.6486 21.4058 35.9579 21.4581 36.3026 21.4581C36.6411 21.4581 36.935 21.4089 37.1843 21.3104C37.4367 21.2119 37.6321 21.0749 37.7706 20.8995C37.9091 20.7241 37.9783 20.5225 37.9783 20.2947C37.9783 20.0824 37.9152 19.9039 37.7891 19.7592C37.666 19.6146 37.4844 19.4915 37.2443 19.3899C37.0073 19.2884 36.7165 19.196 36.3718 19.1129L35.3423 18.8544C34.5452 18.6605 33.9158 18.3574 33.4542 17.945C32.9925 17.5326 32.7633 16.977 32.7663 16.2784C32.7633 15.706 32.9156 15.2058 33.2234 14.7781C33.5342 14.3503 33.9605 14.0163 34.5021 13.7763C35.0438 13.5362 35.6593 13.4162 36.3487 13.4162C37.0504 13.4162 37.6629 13.5362 38.1861 13.7763C38.7124 14.0163 39.1217 14.3503 39.4141 14.7781C39.7064 15.2058 39.8572 15.7013 39.8665 16.2646H37.9506Z" fill="#FFFEFE"/>
</svg>
