<svg width="22" height="15" viewBox="0 0 22 15" fill="none" xmlns="http://www.w3.org/2000/svg">
<path d="M11 14.9977C8.59578 15.0035 6.24784 14.2704 4.274 12.8977C2.34563 11.5611 0.85799 9.6815 0 7.49768C0.868062 5.2875 2.38179 3.39007 4.34389 2.05269C6.30599 0.715305 8.62546 0 11 0C13.3745 0 15.694 0.715305 17.6561 2.05269C19.6182 3.39007 21.1319 5.2875 22 7.49768C21.1423 9.68139 19.655 11.561 17.727 12.8977C15.7529 14.2706 13.4046 15.0037 11 14.9977ZM11 2.49768C10.0111 2.49768 9.04439 2.79093 8.22215 3.34034C7.3999 3.88974 6.75904 4.67064 6.3806 5.58427C6.00216 6.4979 5.90315 7.50323 6.09607 8.47314C6.289 9.44304 6.7652 10.334 7.46447 11.0332C8.16373 11.7325 9.05464 12.2087 10.0245 12.4016C10.9945 12.5945 11.9998 12.4955 12.9134 12.1171C13.827 11.7386 14.6079 11.0978 15.1573 10.2755C15.7068 9.45329 16 8.48659 16 7.49768C15.9987 6.17201 15.4715 4.90101 14.5341 3.96361C13.5967 3.02622 12.3257 2.49901 11 2.49768ZM11 10.4977C10.4067 10.4977 9.82664 10.3217 9.33329 9.99209C8.83994 9.66245 8.45542 9.19391 8.22836 8.64573C8.0013 8.09756 7.94189 7.49436 8.05764 6.91241C8.1734 6.33047 8.45912 5.79592 8.87868 5.37636C9.29824 4.95681 9.83279 4.67108 10.4147 4.55533C10.9967 4.43957 11.5999 4.49898 12.1481 4.72605C12.6962 4.95311 13.1648 5.33763 13.4944 5.83097C13.8241 6.32432 14 6.90434 14 7.49768C14 8.29333 13.6839 9.0564 13.1213 9.61901C12.5587 10.1816 11.7956 10.4977 11 10.4977Z" fill="#909090"/>
</svg>
