<svg width="23" height="25" viewBox="0 0 23 25" fill="none" xmlns="http://www.w3.org/2000/svg">
<path d="M5.12211 10.4771C5.57702 9.09963 6.45558 7.90108 7.63232 7.05268C8.80906 6.20428 10.2238 5.74941 11.6745 5.75304C13.2422 5.75128 14.762 6.29364 15.9744 7.28755L19.3624 3.89518C18.0216 2.71153 16.4264 1.85221 14.7004 1.38372C12.9743 0.915231 11.1636 0.850124 9.40836 1.19344C7.6531 1.53676 6.00036 2.27929 4.57801 3.36359C3.15566 4.44789 2.00184 5.84488 1.20581 7.44648L5.12211 10.4771Z" fill="#EA4335"/>
<path d="M15.6006 18.5027C14.4184 19.2226 13.0538 19.5868 11.6701 19.5516C10.2259 19.5545 8.81735 19.1031 7.64395 18.2611C6.47055 17.4192 5.59174 16.2294 5.13196 14.8604L1.20142 17.8417C2.1652 19.7935 3.65717 21.4357 5.50777 22.5818C7.35836 23.7279 9.49335 24.3319 11.6701 24.3251C14.488 24.3551 17.2119 23.3119 19.2889 21.4073L15.6006 18.5027Z" fill="#34A853"/>
<path d="M19.289 21.4062C20.4547 20.2738 21.3701 18.9097 21.9763 17.4019C22.5825 15.894 22.866 14.2759 22.8086 12.6518C22.7993 11.9376 22.7107 11.2266 22.5444 10.532H11.6702V15.0412H17.931C17.7986 15.7463 17.5236 16.4168 17.1229 17.0119C16.7222 17.6069 16.2042 18.1138 15.6007 18.5016L19.289 21.4062Z" fill="#4A90E2"/>
<path d="M5.13199 14.8593C4.89274 14.1483 4.77094 13.403 4.77138 12.6528C4.77116 11.9142 4.88806 11.1802 5.11774 10.4782L1.20364 7.44974C0.411701 9.06718 0 10.8443 0 12.6452C0 14.4461 0.411701 16.2232 1.20364 17.8406L5.13199 14.8593Z" fill="#FBBC05"/>
</svg>
