<svg width="29" height="30" viewBox="0 0 29 30" fill="none" xmlns="http://www.w3.org/2000/svg">
<path d="M24.4124 16.117L24.3369 16.6827L24.7856 17.0353L27.7035 19.3291L24.965 24.0644L21.5059 22.675L20.9736 22.4612L20.5203 22.8127C19.8315 23.3469 19.0777 23.7927 18.2589 24.1258L17.7263 24.3424L17.6456 24.9118L17.1228 28.6H11.6539L11.1312 24.9118L11.0505 24.3424L10.5179 24.1258C9.70405 23.7947 8.96288 23.3496 8.24867 22.8068L7.79713 22.4636L7.27086 22.675L3.81173 24.0644L1.07378 19.33L4.01821 17.0383L4.48833 16.6724L4.39039 16.0848C4.32478 15.6911 4.29608 15.2398 4.29608 14.8C4.29608 14.4001 4.34842 13.9521 4.42123 13.5152L4.51917 12.9276L4.04904 12.5617L1.10419 10.2696L3.82759 5.53576L7.28627 6.92502L7.81064 7.13565L8.26161 6.79513C8.96463 6.26427 9.72182 5.8043 10.5333 5.47421L11.0659 5.25755L11.1466 4.68825L11.6693 1H17.1382L17.661 4.68825L17.7417 5.25755L18.2743 5.47421C19.0881 5.80526 19.8293 6.25044 20.5435 6.79325L20.995 7.13641L21.5213 6.92502L24.9804 5.53558L27.7184 10.27L24.774 12.5617L24.3038 12.9276L24.4018 13.5152C24.4675 13.9095 24.4961 14.3457 24.4961 14.8C24.4961 15.2678 24.4678 15.7014 24.4124 16.117ZM0.888931 19.4739C0.888741 19.4741 0.88855 19.4742 0.888358 19.4744L0.888627 19.4741L0.888931 19.4739ZM7.84608 14.8C7.84608 18.4048 10.7913 21.35 14.3961 21.35C18.0009 21.35 20.9461 18.4048 20.9461 14.8C20.9461 11.1952 18.0009 8.25 14.3961 8.25C10.7913 8.25 7.84608 11.1952 7.84608 14.8Z" stroke="#909090" stroke-width="2"/>
</svg>
